<svg width="23" height="23" viewBox="0 0 23 23" fill="none" xmlns="http://www.w3.org/2000/svg">
<path opacity="0.7" d="M11.5 0C5.14933 0 0 5.28281 0 11.7926C0 17.0036 3.29598 21.4188 7.86518 22.9795C7.93705 22.9949 7.99866 23 8.06027 23C8.48638 23 8.65067 22.6868 8.65067 22.4147C8.65067 22.1324 8.6404 21.3931 8.63527 20.4074C8.20402 20.5049 7.81897 20.546 7.475 20.546C5.26228 20.546 4.75915 18.8261 4.75915 18.8261C4.23549 17.4656 3.4808 17.1011 3.4808 17.1011C2.47969 16.3978 3.47567 16.3772 3.55268 16.3772H3.55781C4.71295 16.4799 5.31875 17.5991 5.31875 17.5991C5.89375 18.6054 6.66384 18.8877 7.35179 18.8877C7.89085 18.8877 8.37857 18.7132 8.66607 18.5797C8.76875 17.8199 9.06652 17.3013 9.39509 17.0036C6.84353 16.7058 4.15848 15.6944 4.15848 11.1766C4.15848 9.88795 4.60513 8.83549 5.33929 8.01406C5.22121 7.7163 4.82589 6.51496 5.45223 4.89263C5.45223 4.89263 5.53438 4.86696 5.70893 4.86696C6.12478 4.86696 7.06429 5.02612 8.61473 6.10424C9.53371 5.84241 10.5143 5.71406 11.4949 5.70893C12.4703 5.71406 13.456 5.84241 14.375 6.10424C15.9254 5.02612 16.865 4.86696 17.2808 4.86696C17.4554 4.86696 17.5375 4.89263 17.5375 4.89263C18.1638 6.51496 17.7685 7.7163 17.6504 8.01406C18.3846 8.84063 18.8312 9.89308 18.8312 11.1766C18.8312 15.7047 16.1411 16.7007 13.5792 16.9933C13.99 17.3578 14.3596 18.0766 14.3596 19.1752C14.3596 20.7513 14.3442 22.0246 14.3442 22.4096C14.3442 22.6868 14.5033 23 14.9295 23C14.9911 23 15.0629 22.9949 15.1348 22.9795C19.7092 21.4188 23 16.9984 23 11.7926C23 5.28281 17.8507 0 11.5 0Z" fill="white"/>
</svg>
