<svg width="23" height="23" viewBox="0 0 23 23" fill="none" xmlns="http://www.w3.org/2000/svg">
<path opacity="0.7" d="M21.1607 0H1.96509C0.916644 0 0 0.754883 0 1.79135V21.0289C0 22.0713 0.916644 23 1.96509 23H21.1547C22.2091 23 23 22.0654 23 21.0289V1.79135C23.006 0.754883 22.2091 0 21.1607 0ZM7.12945 19.1716H3.83433V8.92679H7.12945V19.1716ZM5.59572 7.3691H5.57176C4.51732 7.3691 3.83433 6.58426 3.83433 5.60171C3.83433 4.60119 4.53529 3.83433 5.61369 3.83433C6.6921 3.83433 7.35112 4.5952 7.37509 5.60171C7.37509 6.58426 6.6921 7.3691 5.59572 7.3691ZM19.1716 19.1716H15.8765V13.5699C15.8765 12.2279 15.3972 11.3113 14.205 11.3113C13.2943 11.3113 12.7551 11.9284 12.5155 12.5275C12.4256 12.7431 12.4016 13.0367 12.4016 13.3363V19.1716H9.10653V8.92679H12.4016V10.3527C12.8809 9.66969 13.6298 8.68715 15.3733 8.68715C17.5361 8.68715 19.1716 10.113 19.1716 13.1865V19.1716V19.1716Z" fill="white"/>
</svg>
