<svg width="23" height="16" viewBox="0 0 23 16" fill="none" xmlns="http://www.w3.org/2000/svg">
<g opacity="0.7">
<path d="M22.812 1.95222L16.863 8.01184C16.8187 8.05607 16.8187 8.12242 16.863 8.16665L21.0262 12.6008C21.3082 12.8828 21.3082 13.3361 21.0262 13.6181C20.888 13.7563 20.7 13.8282 20.5175 13.8282C20.3351 13.8282 20.1471 13.7563 20.0089 13.6181L15.8623 9.20054C15.818 9.15631 15.7462 9.15631 15.7019 9.20054L14.6901 10.2289C13.8442 11.0859 12.7219 11.5614 11.5166 11.5669C10.2947 11.5724 9.13365 11.0582 8.27668 10.1902L7.30361 9.20054C7.25938 9.15631 7.1875 9.15631 7.14327 9.20054L2.99663 13.6181C2.85841 13.7563 2.67043 13.8282 2.48798 13.8282C2.30553 13.8282 2.11755 13.7563 1.97933 13.6181C1.69736 13.3361 1.69736 12.8828 1.97933 12.6008L6.14255 8.16665C6.18125 8.12242 6.18125 8.05607 6.14255 8.01184L0.187981 1.95222C0.116106 1.88034 0 1.9301 0 2.02962V14.1544C0 15.1275 0.796154 15.9236 1.76923 15.9236H21.2308C22.2038 15.9236 23 15.1275 23 14.1544V2.02962C23 1.9301 22.8784 1.88587 22.812 1.95222V1.95222Z" fill="white"/>
<path d="M11.5004 10.1233C12.3187 10.1233 13.0872 9.80265 13.6622 9.21659L22.337 0.387019C22.0329 0.14375 21.6569 0 21.2423 0H1.76415C1.34948 0 0.967991 0.14375 0.669434 0.387019L9.34419 9.21659C9.91367 9.79712 10.6822 10.1233 11.5004 10.1233V10.1233Z" fill="white"/>
</g>
</svg>
