<svg width="25" height="21" viewBox="0 0 25 21" fill="none" xmlns="http://www.w3.org/2000/svg">
<path opacity="0.7" d="M25 2.41047C24.0782 2.81839 23.0928 3.09388 22.0545 3.22102C23.114 2.58529 23.9299 1.57872 24.3113 0.381437C23.3206 0.969485 22.224 1.3986 21.0532 1.6264C20.1155 0.625132 18.7805 0 17.3077 0C14.4734 0 12.1795 2.29922 12.1795 5.1335C12.1795 5.53613 12.2219 5.92816 12.3119 6.3043C8.04726 6.09239 4.26468 4.04747 1.73766 0.937699C1.29794 1.69527 1.04365 2.58 1.04365 3.51769C1.04365 5.29773 1.95486 6.87116 3.33227 7.79297C2.48464 7.77177 1.68998 7.53867 1.00127 7.15194V7.21551C1.00127 9.70545 2.77071 11.7769 5.11761 12.2484C4.68849 12.3649 4.23289 12.4285 3.76669 12.4285C3.43823 12.4285 3.11507 12.3967 2.8025 12.3331C3.45412 14.3727 5.35071 15.8561 7.59695 15.8985C5.8434 17.2759 3.62895 18.0971 1.22378 18.0971C0.810553 18.0971 0.402628 18.0706 0 18.0229C2.26213 19.4957 4.95868 20.3433 7.85124 20.3433C17.2971 20.3433 22.4571 12.5185 22.4571 5.73215C22.4571 5.50964 22.4518 5.28714 22.4412 5.06993C23.4425 4.34414 24.3113 3.44353 25 2.41047Z" fill="white"/>
</svg>
